<?xml version="1.0" encoding="utf-8"?>
<!-- Generator: Adobe Illustrator 22.0.1, SVG Export Plug-In . SVG Version: 6.00 Build 0)  -->
<svg version="1.1" id="Layer_1" xmlns="http://www.w3.org/2000/svg" xmlns:xlink="http://www.w3.org/1999/xlink" x="0px" y="0px"
	 viewBox="0 0 30.4 30.4" style="enable-background:new 0 0 30.4 30.4;" xml:space="preserve">
<style type="text/css">
	.st0{fill:#F5A61C;}
</style>
<path id="White_2_" class="st0" d="M28.7,0h-27C0.8,0,0,0.8,0,1.7v27c0,0.9,0.8,1.7,1.7,1.7h14.5V18.6h-4V14h4v-3.4
	c0-3.9,2.4-6.1,5.9-6.1c1.7,0,3.1,0.1,3.5,0.2v4.1l-2.4,0c-1.9,0-2.3,0.9-2.3,2.2V14h4.5l-0.6,4.6H21v11.8h7.7
	c0.9,0,1.7-0.8,1.7-1.7v-27C30.4,0.8,29.6,0,28.7,0z"/>
</svg>
