<?xml version="1.0" encoding="UTF-8"?>
<svg width="36px" height="36px" viewBox="0 0 36 36" version="1.1" xmlns="http://www.w3.org/2000/svg" xmlns:xlink="http://www.w3.org/1999/xlink">
    <!-- Generator: Sketch 48.1 (47250) - http://www.bohemiancoding.com/sketch -->
    <title>Page 1 Copy</title>
    <desc>Created with Sketch.</desc>
    <defs>
        <polygon id="path-1" points="0 0 36 0 36 36 0 36"></polygon>
    </defs>
    <g id="Mobile" stroke="none" stroke-width="1" fill="none" fill-rule="evenodd">
        <g id="Group-3">
            <g id="Page-1-Copy">
                <mask id="mask-2" fill="white">
                    <use xlink:href="#path-1"></use>
                </mask>
                <g id="Clip-2"></g>
                <path d="M27.8905278,29.6675644 L27.5834185,30.1979406 L28.1972801,30.1979406 L28.8111416,30.1979406 L28.5043894,29.6675644 L28.1972801,29.1368317 L27.8905278,29.6675644 Z M21.1241234,29.6675644 L20.8173711,30.1979406 L21.4312327,30.1979406 L22.0450943,30.1979406 L21.7379849,29.6675644 L21.4312327,29.1368317 L21.1241234,29.6675644 Z M16.0375356,29.6675644 L15.7307833,30.1979406 L16.3446449,30.1979406 L16.9585065,30.1979406 L16.6513972,29.6675644 L16.3446449,29.1368317 L16.0375356,29.6675644 Z M11.0677208,29.6675644 L10.7609685,30.1979406 L11.374473,30.1979406 L11.9886917,30.1979406 L11.6815824,29.6675644 L11.374473,29.1368317 L11.0677208,29.6675644 Z M23.5313607,29.7805545 L23.934531,28.8759208 C24.3191318,29.1300594 24.8647866,29.3036436 25.3672318,29.3036436 C25.8753906,29.3036436 26.0742974,29.1610693 26.0742974,28.9504158 C26.0742974,28.262495 23.6059954,28.7643564 23.6059954,27.1532673 C23.6059954,26.3783762 24.2384264,25.7464158 25.5282856,25.7464158 C26.0925097,25.7464158 26.6756604,25.8765149 27.1034709,26.1245941 L26.7252978,27.0352871 C26.3096289,26.8121584 25.9003879,26.7005941 25.5222148,26.7005941 C25.007271,26.7005941 24.8212199,26.8741782 24.8212199,27.0908911 C24.8212199,27.7542178 27.2834512,27.2584158 27.2834512,28.8573861 C27.2834512,29.6133861 26.6506631,30.2578218 25.361161,30.2578218 C24.6476674,30.2578218 23.9406017,30.065703 23.5313607,29.7805545 Z M18.7654522,26.806099 L17.4320263,26.806099 L17.4320263,25.8330297 L21.3201734,25.8330297 L21.3201734,26.806099 L19.9931753,26.806099 L19.9931753,30.1712079 L18.7654522,30.1712079 L18.7654522,26.806099 Z M13.6827926,30.1708515 L14.9105157,30.1708515 L14.9105157,25.8330297 L13.6827926,25.8330297 L13.6827926,30.1708515 Z M8.8733174,26.7811485 L8.8733174,27.7356832 L10.7895369,27.7356832 L10.7895369,28.683802 L8.8733174,28.683802 L8.8733174,30.1712079 L7.64559423,30.1712079 L7.64559423,25.8330297 L11.0498656,25.8330297 L11.0498656,26.7811485 L8.8733174,26.7811485 Z M34.772991,23.1733069 L29.235024,23.1772277 L29.235024,18.8005545 C30.1727788,19.7262178 31.4404976,20.2954455 32.8346311,20.2954455 L32.8346311,18.6109307 C30.8466338,18.6109307 29.235024,16.9399604 29.235024,14.8783366 L29.235024,14.8676436 C30.1727788,15.7933069 31.4404976,16.3625347 32.8346311,16.3625347 L32.8346311,14.6780198 C30.8466338,14.6780198 29.235024,13.0070495 29.235024,10.9454257 L29.235024,10.9261782 C30.1727788,11.852198 31.4404976,12.4210693 32.8346311,12.4210693 L32.8346311,10.7369109 C30.8466338,10.7369109 29.235024,9.06558416 29.235024,7.00431683 L27.6109155,7.00431683 C27.6109155,9.06558416 25.9993056,10.7369109 24.0113083,10.7369109 L24.0113083,12.4210693 C25.4050848,12.4210693 26.6731607,11.852198 27.6109155,10.9261782 L27.6109155,10.9454257 C27.6109155,13.0070495 25.9993056,14.6780198 24.0113083,14.6780198 L24.0113083,16.3625347 C25.4050848,16.3625347 26.6731607,15.7933069 27.6109155,14.8676436 L27.6109155,14.8783366 C27.6109155,16.9399604 25.9993056,18.6109307 24.0113083,18.6109307 L24.0113083,20.2954455 C25.4050848,20.2954455 26.6731607,19.7262178 27.6109155,18.8005545 L27.6109155,23.178297 L18.8122328,23.1843564 L18.8122328,18.8005545 C19.7496305,19.7262178 21.0177064,20.2954455 22.4114829,20.2954455 L22.4114829,18.6109307 C20.4234855,18.6109307 18.8122328,16.9399604 18.8122328,14.8783366 L18.8122328,14.8676436 C19.7496305,15.7933069 21.0177064,16.3625347 22.4114829,16.3625347 L22.4114829,14.6780198 C20.4234855,14.6780198 18.8122328,13.0070495 18.8122328,10.9454257 L18.8122328,10.9261782 C19.7496305,11.852198 21.0177064,12.4210693 22.4114829,12.4210693 L22.4114829,10.7369109 C20.4234855,10.7369109 18.8122328,9.06558416 18.8122328,7.00431683 L17.1877672,7.00431683 C17.1877672,9.06558416 15.5765145,10.7369109 13.5885171,10.7369109 L13.5885171,12.4210693 C14.9822936,12.4210693 16.2500124,11.852198 17.1877672,10.9261782 L17.1877672,10.9454257 C17.1877672,13.0070495 15.5765145,14.6780198 13.5885171,14.6780198 L13.5885171,16.3625347 C14.9822936,16.3625347 16.2500124,15.7933069 17.1877672,14.8676436 L17.1877672,14.8783366 C17.1877672,16.9399604 15.5765145,18.6109307 13.5885171,18.6109307 L13.5885171,20.2954455 C14.9822936,20.2954455 16.2500124,19.7262178 17.1877672,18.8005545 L17.1877672,23.1850693 L8.38908452,23.1911287 L8.38908452,18.8005545 C9.32683933,19.7262178 10.5945581,20.2954455 11.9886917,20.2954455 L11.9886917,18.6109307 C10.0006944,18.6109307 8.38908452,16.9399604 8.38908452,14.8783366 L8.38908452,14.8676436 C9.32683933,15.7933069 10.5945581,16.3625347 11.9886917,16.3625347 L11.9886917,14.6780198 C10.0006944,14.6780198 8.38908452,13.0070495 8.38908452,10.9454257 L8.38908452,10.9261782 C9.32683933,11.852198 10.5945581,12.4210693 11.9886917,12.4210693 L11.9886917,10.7369109 C10.0006944,10.7369109 8.38908452,9.06558416 8.38908452,7.00431683 L6.76497604,7.00431683 C6.76497604,9.06558416 5.1533662,10.7369109 3.16536886,10.7369109 L3.16536886,12.4210693 C4.55914533,12.4210693 5.82722124,11.852198 6.76497604,10.9261782 L6.76497604,10.9454257 C6.76497604,13.0070495 5.1533662,14.6780198 3.16536886,14.6780198 L3.16536886,16.3625347 C4.55914533,16.3625347 5.82722124,15.7933069 6.76497604,14.8676436 L6.76497604,14.8783366 C6.76497604,16.9399604 5.1533662,18.6109307 3.16536886,18.6109307 L3.16536886,20.2954455 C4.55914533,20.2954455 5.82722124,19.7262178 6.76497604,18.8005545 L6.76497604,23.192198 L1.22700896,23.1961188 L1.22700896,6.97758416 L17.9998214,1.29350495 L34.772991,6.97758416 L34.772991,23.1733069 Z M34.772991,29.1286337 L17.9998214,34.7093465 L1.22700896,29.1286337 L1.22700896,24.4208317 L34.772991,24.3980198 L34.772991,29.1286337 Z M17.9998214,0 L0,6.1000396 L0,30.0111683 L17.9998214,36 L36,30.0111683 L36,6.1000396 L17.9998214,0 Z" id="Fill-1" fill="#F5A623" mask="url(#mask-2)"></path>
            </g>
        </g>
    </g>
</svg>