<?xml version="1.0" encoding="utf-8"?>
<!-- Generator: Adobe Illustrator 22.0.1, SVG Export Plug-In . SVG Version: 6.00 Build 0)  -->
<svg version="1.1" id="Layer_1" xmlns="http://www.w3.org/2000/svg" xmlns:xlink="http://www.w3.org/1999/xlink" x="0px" y="0px"
	 viewBox="0 0 30.4 29.4" style="enable-background:new 0 0 30.4 29.4;" xml:space="preserve">
<style type="text/css">
	.st0{fill:#F5A61C;}
</style>
<g>
	<path class="st0" d="M15.2,2.6c4.1,0,4.5,0,6.2,0.1c1.5,0.1,2.3,0.3,2.8,0.5c0.7,0.3,1.2,0.6,1.8,1.1c0.5,0.5,0.9,1,1.1,1.7
		c0.2,0.5,0.5,1.3,0.5,2.7c0.1,1.6,0.1,2,0.1,5.9s0,4.4-0.1,5.9c-0.1,1.4-0.3,2.2-0.5,2.7c-0.3,0.7-0.6,1.2-1.1,1.7
		c-0.5,0.5-1,0.8-1.8,1.1c-0.5,0.2-1.3,0.4-2.8,0.5c-1.6,0.1-2.1,0.1-6.2,0.1s-4.5,0-6.2-0.1c-1.5-0.1-2.3-0.3-2.8-0.5
		c-0.7-0.3-1.2-0.6-1.8-1.1c-0.5-0.5-0.9-1-1.1-1.7c-0.2-0.5-0.5-1.3-0.5-2.7c-0.1-1.6-0.1-2-0.1-5.9s0-4.4,0.1-5.9
		C2.9,7.3,3.1,6.5,3.4,6C3.6,5.3,4,4.9,4.5,4.3c0.5-0.5,1-0.8,1.8-1.1C6.8,3,7.6,2.8,9.1,2.7C10.7,2.7,11.2,2.6,15.2,2.6 M15.2,0
		c-4.1,0-4.7,0-6.3,0.1C7.3,0.2,6.2,0.4,5.3,0.8c-1,0.4-1.9,0.9-2.7,1.7C1.7,3.3,1.2,4.1,0.8,5.1C0.4,6,0.2,7.1,0.1,8.6
		C0,10.2,0,10.7,0,14.7c0,4,0,4.5,0.1,6.1c0.1,1.6,0.3,2.6,0.7,3.6c0.4,1,0.9,1.8,1.8,2.6c0.8,0.8,1.7,1.3,2.7,1.7
		c1,0.4,2.1,0.6,3.7,0.7c1.6,0.1,2.1,0.1,6.3,0.1s4.7,0,6.3-0.1c1.6-0.1,2.7-0.3,3.7-0.7c1-0.4,1.9-0.9,2.7-1.7
		c0.8-0.8,1.4-1.6,1.8-2.6c0.4-0.9,0.6-2,0.7-3.6c0.1-1.6,0.1-2.1,0.1-6.1s0-4.5-0.1-6.1C30.3,7.1,30,6,29.6,5.1
		c-0.4-1-0.9-1.8-1.8-2.6c-0.8-0.8-1.7-1.3-2.7-1.7c-1-0.4-2.1-0.6-3.7-0.7C19.9,0,19.4,0,15.2,0L15.2,0z"/>
	<path class="st0" d="M15.2,7.2c-4.3,0-7.8,3.4-7.8,7.6s3.5,7.6,7.8,7.6s7.8-3.4,7.8-7.6S19.5,7.2,15.2,7.2z M15.2,19.6
		c-2.8,0-5.1-2.2-5.1-4.9c0-2.7,2.3-4.9,5.1-4.9c2.8,0,5.1,2.2,5.1,4.9C20.3,17.4,18,19.6,15.2,19.6z"/>
	<ellipse class="st0" cx="23.4" cy="6.9" rx="1.8" ry="1.8"/>
</g>
</svg>
