<?xml version="1.0" encoding="utf-8"?>
<!-- Generator: Adobe Illustrator 22.0.1, SVG Export Plug-In . SVG Version: 6.00 Build 0)  -->
<svg version="1.1" id="Layer_1" xmlns="http://www.w3.org/2000/svg" xmlns:xlink="http://www.w3.org/1999/xlink" x="0px" y="0px"
	 viewBox="0 0 30.4 21" style="enable-background:new 0 0 30.4 21;" xml:space="preserve">
<style type="text/css">
	.st0{fill:#F5A61C;}
</style>
<g>
	<path class="st0" d="M26.6,21c-7.6,0-15.2,0-22.8,0c0,0,0-0.1,0-0.1c0-2.1,0-4.3,0-6.4c0-0.5,0-1,0.1-1.5c0.1-0.6,0.3-1.1,0.6-1.6
		c0.4-0.8,1.1-1.4,1.9-1.8C6.6,9.5,6.7,9.4,7,9.3C7.6,9.1,8.2,9,8.8,8.7c0.3-0.1,0.7-0.3,0.9-0.5C10,8,10.1,7.8,10.1,7.4
		c0-0.6,0-1.2,0-1.8c0,0,0-0.1,0-0.1c0.7,0,1.3,0,1.9,0c0,0.3,0,0.7,0,1c2.1,0,4.2,0,6.3,0c0-0.3,0-0.7,0-1c0.6,0,1.3,0,1.9,0
		c0,0,0,0.1,0,0.1c0,0.6,0,1.3,0,1.9c0,0.2,0.1,0.4,0.2,0.5c0.2,0.2,0.3,0.3,0.6,0.4c0.6,0.3,1.2,0.5,1.8,0.7
		c0.2,0.1,0.5,0.1,0.7,0.2c0.6,0.2,1.2,0.6,1.7,1.1c0.6,0.6,1,1.3,1.2,2.1c0.2,0.7,0.2,1.3,0.2,2C26.6,16.6,26.6,18.8,26.6,21
		C26.6,20.9,26.6,21,26.6,21z M15.1,19.2c3,0,5.4-2.5,5.4-5.4c0.1-2.9-2.4-5.5-5.4-5.4c-3-0.1-5.4,2.5-5.4,5.4
		C9.7,16.8,12.2,19.3,15.1,19.2z"/>
	<path class="st0" d="M0,6.5c0-0.1,0-0.3,0.1-0.4c0.1-0.5,0.3-1,0.6-1.4c0.5-0.6,1-1.1,1.6-1.6c1.3-1,2.8-1.7,4.4-2.1
		c0.8-0.2,1.7-0.4,2.5-0.5c0.6-0.1,1.2-0.2,1.8-0.2c0.7-0.1,1.3-0.1,2-0.2c0.7,0,1.5-0.1,2.2-0.1c0.6,0,1.2,0,1.8,0.1
		c0.4,0,0.8,0,1.2,0.1c0.4,0,0.9,0.1,1.3,0.1c0.4,0.1,0.9,0.1,1.3,0.2c0.9,0.1,1.7,0.3,2.6,0.5c1,0.3,2,0.6,2.9,1.1
		c1.1,0.6,2.1,1.3,2.9,2.2c0.5,0.5,0.8,1,1,1.7c0.1,0.2,0.1,0.5,0.1,0.7c0,0.2-0.1,0.4-0.1,0.6c-0.1,0.4-0.3,0.7-0.5,1
		c-0.3,0.4-0.8,0.6-1.3,0.6c0,0-0.1,0-0.1,0c-1.8-0.6-3.6-1.2-5.4-1.9c-0.1,0-0.3-0.1-0.4-0.2c-0.4-0.2-0.5-0.5-0.4-0.9
		c0-0.2,0.1-0.3,0.2-0.5c0.2-0.3,0.5-0.5,0.6-0.8c0.1-0.1,0.1-0.3,0.1-0.4c0-0.1-0.1-0.2-0.2-0.3c-0.1,0-0.2,0-0.3-0.1
		c0,0-0.1,0-0.1,0c-5,0-10,0-14.9,0c-0.1,0-0.2,0-0.3,0C7.3,3.9,7.2,4.1,7.2,4.2c0,0.2,0.2,0.4,0.3,0.6C7.7,5,7.9,5.2,8,5.4
		c0.1,0.2,0.2,0.3,0.2,0.5c0.1,0.4-0.1,0.7-0.5,0.9C7.6,6.9,7.3,7,7.1,7.1c-1.7,0.6-3.3,1.1-5,1.7c-0.2,0.1-0.5,0-0.7,0
		C1,8.7,0.8,8.4,0.5,8.1C0.3,7.7,0.1,7.3,0,6.8c0,0,0,0,0,0C0,6.7,0,6.6,0,6.5z"/>
	<path class="st0" d="M15.1,10.8c1.7,0,3,1.4,3,3.1c0,1.6-1.4,3-3.1,3c-1.5,0-2.9-1.4-2.9-3C12.1,12.1,13.5,10.8,15.1,10.8z"/>
</g>
</svg>
