<?xml version="1.0" encoding="utf-8"?>
<!-- Generator: Adobe Illustrator 22.0.1, SVG Export Plug-In . SVG Version: 6.00 Build 0)  -->
<svg version="1.1" id="Layer_1" xmlns="http://www.w3.org/2000/svg" xmlns:xlink="http://www.w3.org/1999/xlink" x="0px" y="0px"
	 viewBox="0 0 123.4 190.4" style="enable-background:new 0 0 123.4 190.4;" xml:space="preserve">
<style type="text/css">
	.st0{fill:#8AC000;}
	.st1{fill:#269A01;}
	.st2{fill:#656C5C;}
	.st3{fill:#384444;}
</style>
<g>
	<circle class="st0" cx="87.8" cy="72.2" r="16.4"/>
	<circle class="st1" cx="37.5" cy="139" r="13.1"/>
	<circle class="st2" cx="99.8" cy="111.9" r="23.7"/>
	<circle class="st2" cx="84.4" cy="27.1" r="15.3"/>
	<circle class="st1" cx="57.5" cy="11.5" r="11.5"/>
	<circle class="st0" cx="30.7" cy="46.5" r="16.4"/>
	<circle class="st2" cx="18.8" cy="88" r="18.8"/>
	<g>
		<polygon class="st3" points="55.3,123.4 55.3,118.4 33.6,102.5 32.7,103.6 		"/>
		<polygon class="st3" points="61.6,133.3 61.7,138.3 82.5,119.3 80.7,117.4 		"/>
		<polygon class="st3" points="61.6,94 61.6,97.6 77.6,80.9 78.3,78.8 		"/>
		<polygon class="st3" points="55.3,44.8 55.3,42.5 49.5,38.1 48.4,38.4 		"/>
		<polygon class="st3" points="61.6,36.6 61.6,39.1 67,33.8 66.7,32.7 		"/>
		<polygon class="st3" points="55.9,190.4 60.3,190.4 59.4,37.2 57.5,37.2 		"/>
	</g>
</g>
</svg>
