<?xml version="1.0" encoding="utf-8"?>
<!-- Generator: Adobe Illustrator 22.0.1, SVG Export Plug-In . SVG Version: 6.00 Build 0)  -->
<svg version="1.1" id="Layer_1" xmlns="http://www.w3.org/2000/svg" xmlns:xlink="http://www.w3.org/1999/xlink" x="0px" y="0px"
	 viewBox="0 0 55.4 194" style="enable-background:new 0 0 55.4 194;" xml:space="preserve">
<style type="text/css">
	.st0{fill:#384444;}
	.st1{fill:#ECC587;}
	.st2{fill:#656C5C;}
</style>
<g>
	<g>
		<polygon class="st0" points="22.6,127 22.5,122 0.9,106.1 0,107.2 		"/>
		<polygon class="st0" points="28.9,136.9 28.9,141.9 49.8,122.8 48,121 		"/>
		<polygon class="st0" points="28.9,97.6 28.9,101.2 44.9,84.5 45.6,82.4 		"/>
		<polygon class="st0" points="22.6,48.4 22.6,46.1 16.8,41.7 15.6,42 		"/>
		<polygon class="st0" points="28.9,40.1 28.9,42.7 34.3,37.4 34,36.3 		"/>
		<polygon class="st0" points="23.2,194 27.5,194 26.6,40.8 24.8,40.8 		"/>
	</g>
	<circle class="st1" cx="49.9" cy="126.2" r="3.8"/>
	<circle class="st1" cx="4.7" cy="104.3" r="3.8"/>
	<circle class="st2" cx="11.8" cy="136.4" r="5.6"/>
	<circle class="st2" cx="33.2" cy="141.1" r="5.6"/>
	<circle class="st2" cx="15.4" cy="156.2" r="5.6"/>
	<circle class="st2" cx="49.9" cy="77" r="5.6"/>
	<circle class="st2" cx="25.9" cy="8.2" r="8.2"/>
	<circle class="st2" cx="15.4" cy="43.1" r="5.6"/>
	<circle class="st1" cx="20.3" cy="84.3" r="1.6"/>
	<circle class="st1" cx="15.1" cy="52.6" r="1.6"/>
</g>
</svg>
