<?xml version="1.0" encoding="utf-8"?>
<!-- Generator: Adobe Illustrator 22.0.1, SVG Export Plug-In . SVG Version: 6.00 Build 0)  -->
<svg version="1.1" id="Layer_1" xmlns="http://www.w3.org/2000/svg" xmlns:xlink="http://www.w3.org/1999/xlink" x="0px" y="0px"
	 viewBox="0 0 107.7 193" style="enable-background:new 0 0 107.7 193;" xml:space="preserve">
<style type="text/css">
	.st0{fill:#384444;}
	.st1{fill:#8AC000;}
	.st2{fill:#656C5C;}
	.st3{fill:#269A01;}
</style>
<g>
	<g>
		<polygon class="st0" points="53.9,126 53.8,121 32.1,105.1 31.3,106.2 		"/>
		<polygon class="st0" points="60.1,135.9 60.2,140.9 81.1,121.8 79.3,120 		"/>
		<polygon class="st0" points="60.1,96.6 60.1,100.2 76.1,83.5 76.9,81.4 		"/>
		<polygon class="st0" points="53.9,47.4 53.9,45.1 48.1,40.7 46.9,41 		"/>
		<polygon class="st0" points="60.1,39.1 60.1,41.7 65.6,36.4 65.3,35.3 		"/>
		<polygon class="st0" points="54.5,193 58.8,193 57.9,39.8 56,39.8 		"/>
	</g>
	<circle class="st1" cx="53.1" cy="62.1" r="3.8"/>
	<circle class="st2" cx="102.1" cy="97.2" r="5.6"/>
	<circle class="st2" cx="61.6" cy="22" r="5.6"/>
	<circle class="st2" cx="43.1" cy="136.4" r="5.6"/>
	<circle class="st2" cx="64.5" cy="141.1" r="5.6"/>
	<circle class="st2" cx="46.7" cy="156.2" r="5.6"/>
	<circle class="st2" cx="46.4" cy="97.2" r="5.6"/>
	<circle class="st2" cx="25.7" cy="102.8" r="5.6"/>
	<circle class="st2" cx="25.9" cy="77.7" r="5.6"/>
	<circle class="st3" cx="46.4" cy="119.4" r="5.6"/>
	<circle class="st3" cx="81.2" cy="77" r="5.6"/>
	<circle class="st3" cx="33.8" cy="46.5" r="5.6"/>
	<circle class="st3" cx="79" cy="26.9" r="5.6"/>
	<circle class="st3" cx="8.2" cy="75.6" r="8.2"/>
	<circle class="st3" cx="57.2" cy="8.2" r="8.2"/>
	<circle class="st3" cx="88.2" cy="60.6" r="8.2"/>
	<circle class="st3" cx="86.4" cy="11.6" r="5.6"/>
	<circle class="st3" cx="95.5" cy="114.6" r="5.6"/>
	<circle class="st3" cx="72.8" cy="113.7" r="5.6"/>
	<circle class="st3" cx="46.7" cy="43.1" r="5.6"/>
	<circle class="st2" cx="85.4" cy="118.8" r="1.6"/>
	<circle class="st2" cx="17.5" cy="131.7" r="1.6"/>
	<circle class="st2" cx="90.6" cy="71.8" r="1.6"/>
	<circle class="st2" cx="36.4" cy="154.2" r="1.6"/>
	<circle class="st2" cx="15.9" cy="126.8" r="1.6"/>
	<circle class="st2" cx="88.2" cy="122.2" r="1.6"/>
	<circle class="st2" cx="72.6" cy="147" r="1.6"/>
	<circle class="st2" cx="16.9" cy="84.9" r="1.6"/>
	<circle class="st2" cx="19.1" cy="28.4" r="1.6"/>
	<circle class="st1" cx="21.2" cy="24.1" r="1.6"/>
	<circle class="st1" cx="20" cy="69.4" r="1.6"/>
	<circle class="st2" cx="65.3" cy="13" r="1.6"/>
	<circle class="st2" cx="65.6" cy="64.4" r="1.6"/>
	<circle class="st2" cx="31.2" cy="122.6" r="1.6"/>
	<circle class="st1" cx="38.8" cy="146.5" r="3.8"/>
	<circle class="st1" cx="49.7" cy="143.1" r="3.8"/>
	<circle class="st1" cx="34" cy="129.9" r="3.8"/>
	<circle class="st1" cx="64.1" cy="151.8" r="3.8"/>
	<circle class="st1" cx="81.2" cy="126.8" r="3.8"/>
	<circle class="st1" cx="64.1" cy="122.6" r="3.8"/>
	<circle class="st1" cx="86.7" cy="101.8" r="3.8"/>
	<circle class="st1" cx="74.2" cy="64.9" r="3.8"/>
	<circle class="st1" cx="68.8" cy="87.6" r="3.8"/>
	<circle class="st1" cx="66.1" cy="37.5" r="3.8"/>
	<circle class="st1" cx="39" cy="34.1" r="3.8"/>
	<circle class="st1" cx="43.9" cy="56.5" r="3.8"/>
	<circle class="st1" cx="26.4" cy="31.3" r="3.8"/>
	<circle class="st1" cx="73.3" cy="14.1" r="3.8"/>
</g>
</svg>
