<?xml version="1.0" encoding="UTF-8"?>
<svg width="70px" height="40px" viewBox="0 0 70 40" version="1.1" xmlns="http://www.w3.org/2000/svg" xmlns:xlink="http://www.w3.org/1999/xlink">
    <!-- Generator: Sketch 48.1 (47250) - http://www.bohemiancoding.com/sketch -->
    <title>Group 3 Copy 2</title>
    <desc>Created with Sketch.</desc>
    <defs></defs>
    <g id="Mobile" stroke="none" stroke-width="1" fill="none" fill-rule="evenodd">
        <g id="Group-3-Copy-2" fill="#F5A623">
            <path d="M70,13.2793169 L70,9.1501391 C65.2686525,9.1501391 61.4326944,5.05378136 61.4326944,0 L57.5673056,0 C57.5673056,5.05378136 53.7318464,9.1501391 49,9.1501391 L49,13.2793169 C52.3176798,13.2793169 55.336065,11.8839502 57.5673056,9.61474853 L57.5673056,9.66192741 C57.5673056,14.7157088 53.7318464,18.8120665 49,18.8120665 L49,22.9412443 C52.3176798,22.9412443 55.336065,21.5458776 57.5673056,19.2766759 L57.5673056,19.3028295 C57.5673056,24.3566108 53.7318464,28.4534814 49,28.4534814 L49,32.5821464 C52.3176798,32.5821464 55.336065,31.1872925 57.5673056,28.917578 L57.5673056,40 L61.4326944,40 L61.4326944,28.917578 C63.6644338,31.1872925 66.6828191,32.5821464 70,32.5821464 L70,28.4534814 C65.2686525,28.4534814 61.4326944,24.3566108 61.4326944,19.3028295 L61.4326944,19.2766759 C63.6644338,21.5458776 66.6828191,22.9412443 70,22.9412443 L70,18.8120665 C65.2686525,18.8120665 61.4326944,14.7157088 61.4326944,9.66192741 L61.4326944,9.61474853 C63.6644338,11.8839502 66.6828191,13.2793169 70,13.2793169" id="Fill-5"></path>
            <path d="M45,13.2793169 L45,9.1501391 C40.2686525,9.1501391 36.4326944,5.05378136 36.4326944,0 L32.5673056,0 C32.5673056,5.05378136 28.7318464,9.1501391 24,9.1501391 L24,13.2793169 C27.3176798,13.2793169 30.336065,11.8839502 32.5673056,9.61474853 L32.5673056,9.66192741 C32.5673056,14.7157088 28.7318464,18.8120665 24,18.8120665 L24,22.9412443 C27.3176798,22.9412443 30.336065,21.5458776 32.5673056,19.2766759 L32.5673056,19.3028295 C32.5673056,24.3566108 28.7318464,28.4534814 24,28.4534814 L24,32.5821464 C27.3176798,32.5821464 30.336065,31.1872925 32.5673056,28.917578 L32.5673056,40 L36.4326944,40 L36.4326944,28.917578 C38.6644338,31.1872925 41.6828191,32.5821464 45,32.5821464 L45,28.4534814 C40.2686525,28.4534814 36.4326944,24.3566108 36.4326944,19.3028295 L36.4326944,19.2766759 C38.6644338,21.5458776 41.6828191,22.9412443 45,22.9412443 L45,18.8120665 C40.2686525,18.8120665 36.4326944,14.7157088 36.4326944,9.66192741 L36.4326944,9.61474853 C38.6644338,11.8839502 41.6828191,13.2793169 45,13.2793169" id="Fill-5-Copy"></path>
            <path d="M21,13.2793169 L21,9.1501391 C16.2686525,9.1501391 12.4326944,5.05378136 12.4326944,0 L8.56730564,0 C8.56730564,5.05378136 4.73184636,9.1501391 0,9.1501391 L0,13.2793169 C3.31767975,13.2793169 6.33606499,11.8839502 8.56730564,9.61474853 L8.56730564,9.66192741 C8.56730564,14.7157088 4.73184636,18.8120665 0,18.8120665 L0,22.9412443 C3.31767975,22.9412443 6.33606499,21.5458776 8.56730564,19.2766759 L8.56730564,19.3028295 C8.56730564,24.3566108 4.73184636,28.4534814 0,28.4534814 L0,32.5821464 C3.31767975,32.5821464 6.33606499,31.1872925 8.56730564,28.917578 L8.56730564,40 L12.4326944,40 L12.4326944,28.917578 C14.6644338,31.1872925 17.6828191,32.5821464 21,32.5821464 L21,28.4534814 C16.2686525,28.4534814 12.4326944,24.3566108 12.4326944,19.3028295 L12.4326944,19.2766759 C14.6644338,21.5458776 17.6828191,22.9412443 21,22.9412443 L21,18.8120665 C16.2686525,18.8120665 12.4326944,14.7157088 12.4326944,9.66192741 L12.4326944,9.61474853 C14.6644338,11.8839502 17.6828191,13.2793169 21,13.2793169" id="Fill-5-Copy-2"></path>
        </g>
    </g>
</svg>