<?xml version="1.0" encoding="utf-8"?>
<!-- Generator: Adobe Illustrator 22.0.1, SVG Export Plug-In . SVG Version: 6.00 Build 0)  -->
<svg version="1.1" id="Layer_1" xmlns="http://www.w3.org/2000/svg" xmlns:xlink="http://www.w3.org/1999/xlink" x="0px" y="0px"
	 viewBox="0 0 124.2 193.3" style="enable-background:new 0 0 124.2 193.3;" xml:space="preserve">
<style type="text/css">
	.st0{fill:#8AC000;}
	.st1{fill:#269A01;}
	.st2{fill:#656C5C;}
	.st3{fill:#00A500;}
	.st4{fill:#384444;}
</style>
<g>
	<circle class="st0" cx="38.3" cy="124.1" r="38.3"/>
	<circle class="st1" cx="38.5" cy="74.2" r="28.8"/>
	<circle class="st2" cx="83.1" cy="76.5" r="36.4"/>
	<circle class="st3" cx="85.2" cy="122.5" r="38.3"/>
	<circle class="st0" cx="88.6" cy="75.1" r="16.4"/>
	<circle class="st1" cx="38.3" cy="141.9" r="13.1"/>
	<circle class="st2" cx="100.6" cy="114.8" r="23.7"/>
	<circle class="st0" cx="54.1" cy="28.8" r="28.8"/>
	<circle class="st2" cx="31.5" cy="49.4" r="16.4"/>
	<circle class="st2" cx="19.5" cy="90.9" r="18.8"/>
	<circle class="st1" cx="58.3" cy="14.4" r="11.5"/>
	<circle class="st2" cx="85.2" cy="37.8" r="12.5"/>
	<g>
		<polygon class="st4" points="56.2,126.2 56.1,121.2 34.5,105.4 33.6,106.5 		"/>
		<polygon class="st4" points="62.5,136.2 62.5,141.2 83.4,122.1 81.6,120.2 		"/>
		<polygon class="st4" points="62.5,96.9 62.5,100.4 78.5,83.8 79.2,81.7 		"/>
		<polygon class="st4" points="56.2,47.7 56.2,45.3 50.4,40.9 49.3,41.3 		"/>
		<polygon class="st4" points="62.5,39.4 62.5,41.9 67.9,36.7 67.6,35.6 		"/>
		<polygon class="st4" points="56.8,193.3 61.2,193.3 60.2,40.1 58.4,40.1 		"/>
	</g>
</g>
</svg>
