<?xml version="1.0" encoding="utf-8"?>
<!-- Generator: Adobe Illustrator 22.0.1, SVG Export Plug-In . SVG Version: 6.00 Build 0)  -->
<svg version="1.1" id="Layer_1" xmlns="http://www.w3.org/2000/svg" xmlns:xlink="http://www.w3.org/1999/xlink" x="0px" y="0px"
	 viewBox="0 0 30.4 21.3" style="enable-background:new 0 0 30.4 21.3;" xml:space="preserve">
<style type="text/css">
	.st0{fill:#F5A61C;}
</style>
<path class="st0" d="M29.8,3.3C29.5,2,28.4,1,27.1,0.6C24.7,0,15.2,0,15.2,0S5.7,0,3.3,0.6C2,1,1,2,0.6,3.3C0,5.7,0,10.7,0,10.7
	s0,5,0.6,7.3C1,19.3,2,20.3,3.3,20.7c2.4,0.6,11.9,0.6,11.9,0.6s9.5,0,11.9-0.6c1.3-0.4,2.3-1.4,2.7-2.7c0.6-2.4,0.6-7.3,0.6-7.3
	S30.4,5.7,29.8,3.3z M12.2,15.2V6.1l7.9,4.6L12.2,15.2z"/>
</svg>
